<svg width="20" height="22" viewBox="0 0 20 22" fill="none" xmlns="http://www.w3.org/2000/svg">
<path fill-rule="evenodd" clip-rule="evenodd" d="M18.1318 20.7059H2.59026V16.9673H3.23783C3.59528 16.9673 3.88538 16.6774 3.88538 16.3203C3.88538 15.9631 3.59528 15.6732 3.23783 15.6732H2.59026V11.7909H3.23783C3.59528 11.7909 3.88538 11.501 3.88538 11.1438C3.88538 10.7866 3.59528 10.4967 3.23783 10.4967H2.59026V6.61437H3.23783C3.59528 6.61437 3.88538 6.32448 3.88538 5.96732C3.88538 5.61014 3.59528 5.32025 3.23783 5.32025H2.59026V1.29413H18.1318V20.7059ZM1.29512 0V5.32026H0.647568C0.290114 5.32026 0 5.61015 0 5.96732C0 6.3245 0.290114 6.61437 0.647568 6.61437H1.29512V10.4967H0.647568C0.290114 10.4967 0 10.7866 0 11.1438C0 11.501 0.290114 11.7908 0.647568 11.7908H1.29512V15.6732H0.647568C0.290114 15.6732 0 15.9631 0 16.3203C0 16.6774 0.290114 16.9673 0.647568 16.9673H1.29512V22H19.4269V0H1.29512Z" fill="#253D4E"/>
<path d="M11.0368 17.0779C13.8601 15.6382 16.0636 13.2541 16.0636 10.3553C16.0636 7.26374 13.5574 4.75757 10.4659 4.75757C7.37434 4.75757 4.86816 7.26374 4.86816 10.3553C4.86816 13.2541 7.07162 15.6382 9.89497 17.0779C10.2537 17.2608 10.678 17.2608 11.0368 17.0779Z" stroke="#253D4E" stroke-width="0.982128" stroke-linecap="round" stroke-linejoin="round"/>
<path d="M12.5645 10.3552C12.5645 11.5146 11.6247 12.4544 10.4653 12.4544C9.30599 12.4544 8.36621 11.5146 8.36621 10.3552C8.36621 9.19592 9.30599 8.2561 10.4653 8.2561C11.6247 8.2561 12.5645 9.19592 12.5645 10.3552Z" stroke="#253D4E" stroke-width="0.982128" stroke-linecap="round" stroke-linejoin="round"/>
</svg>
