<svg width="26" height="26" viewBox="0 0 26 26" fill="none" xmlns="http://www.w3.org/2000/svg">
<path fill-rule="evenodd" clip-rule="evenodd" d="M2.91211 3.40953C2.91211 2.8313 3.38086 2.36255 3.95909 2.36255H11.2879C11.8662 2.36255 12.3349 2.8313 12.3349 3.40953V10.7384C12.3349 11.3166 11.8662 11.7854 11.2879 11.7854H3.95909C3.38086 11.7854 2.91211 11.3166 2.91211 10.7384V3.40953ZM5.00607 4.45651V9.6914H10.241V4.45651H5.00607Z" fill="white"/>
<path fill-rule="evenodd" clip-rule="evenodd" d="M14.4292 3.40953C14.4292 2.8313 14.8979 2.36255 15.4762 2.36255H22.805C23.3833 2.36255 23.852 2.8313 23.852 3.40953V10.7384C23.852 11.3166 23.3833 11.7854 22.805 11.7854H15.4762C14.8979 11.7854 14.4292 11.3166 14.4292 10.7384V3.40953ZM16.5232 4.45651V9.6914H21.758V4.45651H16.5232Z" fill="white"/>
<path fill-rule="evenodd" clip-rule="evenodd" d="M14.4292 14.9264C14.4292 14.3481 14.8979 13.8794 15.4762 13.8794H22.805C23.3833 13.8794 23.852 14.3481 23.852 14.9264V22.2552C23.852 22.8335 23.3833 23.3022 22.805 23.3022H15.4762C14.8979 23.3022 14.4292 22.8335 14.4292 22.2552V14.9264ZM16.5232 15.9734V21.2082H21.758V15.9734H16.5232Z" fill="white"/>
<path fill-rule="evenodd" clip-rule="evenodd" d="M2.91211 14.9264C2.91211 14.3481 3.38086 13.8794 3.95909 13.8794H11.2879C11.8662 13.8794 12.3349 14.3481 12.3349 14.9264V22.2552C12.3349 22.8335 11.8662 23.3022 11.2879 23.3022H3.95909C3.38086 23.3022 2.91211 22.8335 2.91211 22.2552V14.9264ZM5.00607 15.9734V21.2082H10.241V15.9734H5.00607Z" fill="white"/>
</svg>
