<svg width="26" height="26" viewBox="0 0 26 26" fill="none" xmlns="http://www.w3.org/2000/svg">
<g clip-path="url(#clip0_57_5125)">
<path fill-rule="evenodd" clip-rule="evenodd" d="M8.0459 22.3724C8.0459 21.2159 8.9834 20.2784 10.1399 20.2784C11.2963 20.2784 12.2338 21.2159 12.2338 22.3724C12.2338 23.5289 11.2963 24.4664 10.1399 24.4664C8.9834 24.4664 8.0459 23.5289 8.0459 22.3724Z" fill="#253D4E"/>
<path fill-rule="evenodd" clip-rule="evenodd" d="M19.563 22.3724C19.563 21.2159 20.5005 20.2784 21.6569 20.2784C22.8134 20.2784 23.7509 21.2159 23.7509 22.3724C23.7509 23.5289 22.8134 24.4664 21.6569 24.4664C20.5005 24.4664 19.563 23.5289 19.563 22.3724Z" fill="#253D4E"/>
<path fill-rule="evenodd" clip-rule="evenodd" d="M0.717285 1.43284C0.717285 0.854613 1.18603 0.385864 1.76426 0.385864H5.95218C6.4512 0.385864 6.88086 0.738052 6.9788 1.22737L7.85813 5.62076H24.7978C25.1098 5.62076 25.4056 5.75993 25.6045 6.00035C25.8034 6.24076 25.8847 6.55736 25.8262 6.86386L24.1496 15.6559C24.006 16.3789 23.6126 17.0284 23.0384 17.4906C22.467 17.9506 21.7528 18.196 21.0196 18.1845H10.8611C10.1279 18.196 9.4137 17.9506 8.84234 17.4906C8.26835 17.0286 7.8751 16.3794 7.73134 15.6567C7.73128 15.6564 7.7314 15.657 7.73134 15.6567L5.98232 6.91818C5.97523 6.88927 5.96933 6.85989 5.96469 6.8301L5.09399 2.47982H1.76426C1.18603 2.47982 0.717285 2.01107 0.717285 1.43284ZM8.27724 7.71472L9.785 15.2479C9.83287 15.4889 9.96398 15.7054 10.1554 15.8595C10.3468 16.0136 10.5863 16.0954 10.832 16.0907L10.852 16.0905H21.0287L21.0487 16.0907C21.2944 16.0954 21.5339 16.0136 21.7253 15.8595C21.9158 15.7061 22.0466 15.4909 22.095 15.2513L23.5323 7.71472H8.27724Z" fill="#253D4E"/>
</g>
<defs>
<clipPath id="clip0_57_5125">
<rect width="25.1275" height="25.1275" fill="white" transform="translate(0.717285 0.385864)"/>
</clipPath>
</defs>
</svg>
