<svg width="22" height="21" viewBox="0 0 22 21" fill="none" xmlns="http://www.w3.org/2000/svg">
<path d="M2.71857 18.6529L5.91171 17.5874L6.48686 17.8671C7.81786 18.513 9.339 18.8571 11 18.8571C16.4937 18.8571 20.4286 14.9317 20.4286 10.2143C20.4286 5.47957 16.522 1.57143 11 1.57143C5.478 1.57143 1.57143 5.47957 1.57143 10.2143C1.58071 12.0262 2.17732 13.7862 3.27171 15.2303L3.80286 15.9374L2.71857 18.6513V18.6529ZM1.60757 20.68C1.46537 20.7276 1.3125 20.7336 1.16702 20.6971C1.02154 20.6607 0.889536 20.5834 0.78659 20.4743C0.683644 20.3653 0.614061 20.229 0.58606 20.0817C0.55806 19.9343 0.572811 19.7821 0.628571 19.6429L2.01614 16.1747C0.716856 14.4584 0.0094 12.3669 0 10.2143C0 5.00657 4.21457 0 11 0C17.7854 0 22 5.00657 22 10.2143C22 15.422 17.7414 20.4286 11 20.4286C9.04357 20.4286 7.29614 20.0074 5.80171 19.2814L1.606 20.68H1.60757Z" fill="#253D4E"/>
</svg>
