<svg width="40" height="35" viewBox="0 0 40 35" fill="none" xmlns="http://www.w3.org/2000/svg">
<path d="M20 0C11.75 0 5 6.75 5 15V20H2.5C1.83696 20 1.20107 20.2634 0.732233 20.7322C0.263392 21.2011 0 21.837 0 22.5L0 32.5C0 33.163 0.263392 33.7989 0.732233 34.2678C1.20107 34.7366 1.83696 35 2.5 35H7.5C8.16304 35 8.79893 34.7366 9.26777 34.2678C9.73661 33.7989 10 33.163 10 32.5V15C10 9.45 14.45 5 20 5C25.55 5 30 9.45 30 15V32.5C30 33.163 30.2634 33.7989 30.7322 34.2678C31.2011 34.7366 31.837 35 32.5 35H37.5C38.163 35 38.7989 34.7366 39.2678 34.2678C39.7366 33.7989 40 33.163 40 32.5V22.5C40 21.837 39.7366 21.2011 39.2678 20.7322C38.7989 20.2634 38.163 20 37.5 20H35V15C35 6.75 28.25 0 20 0Z" fill="#253D4E"/>
</svg>
