<svg width="41" height="41" viewBox="0 0 41 41" fill="none" xmlns="http://www.w3.org/2000/svg">
<path d="M40.5684 20.9766C40.5684 9.92781 31.6096 0.976562 20.5684 0.976562C9.51961 0.976562 0.568359 9.92781 0.568359 20.9766C0.568359 30.9566 7.87961 39.2316 17.4434 40.7303V26.7591H12.3646V20.9778H17.4434V16.5691C17.4434 11.5578 20.4246 8.79031 24.9946 8.79031C27.1834 8.79031 29.4746 9.18031 29.4746 9.18031V14.1016H26.9484C24.4684 14.1016 23.6934 15.6453 23.6934 17.2266V20.9766H29.2396L28.3484 26.7578H23.6934V40.7291C33.2496 39.2303 40.5684 30.9553 40.5684 20.9753V20.9766Z" fill="#253D4E"/>
</svg>
