<svg width="26" height="26" viewBox="0 0 26 26" fill="none" xmlns="http://www.w3.org/2000/svg">
<path d="M9.44333 9.33333C9.73068 8.51649 10.2978 7.82769 11.0444 7.38894C11.791 6.9502 12.6687 6.78982 13.5221 6.9362C14.3756 7.0826 15.1496 7.5263 15.7073 8.18876C16.2649 8.8512 16.5702 9.68964 16.5689 10.5556C16.5689 13 12.9022 14.2222 12.9022 14.2222M13 19.1111H13.0122M7.86667 24H18.1333C20.1869 24 21.2136 24 21.998 23.6003C22.6879 23.2488 23.2488 22.6879 23.6003 21.998C24 21.2136 24 20.1869 24 18.1333V7.86667C24 5.81314 24 4.78637 23.6003 4.00204C23.2488 3.3121 22.6879 2.75118 21.998 2.39964C21.2136 2 20.1869 2 18.1333 2H7.86667C5.81314 2 4.78637 2 4.00204 2.39964C3.3121 2.75118 2.75118 3.3121 2.39964 4.00204C2 4.78637 2 5.81314 2 7.86667V18.1333C2 20.1869 2 21.2136 2.39964 21.998C2.75118 22.6879 3.3121 23.2488 4.00204 23.6003C4.78637 24 5.81314 24 7.86667 24Z" stroke="#253D4E" stroke-width="2.44444" stroke-linecap="round" stroke-linejoin="round"/>
</svg>
