<svg width="22" height="22" viewBox="0 0 22 22" fill="none" xmlns="http://www.w3.org/2000/svg">
<path fill-rule="evenodd" clip-rule="evenodd" d="M10.5676 1.38862C10.8827 1.14357 11.3238 1.14357 11.6389 1.38862L19.4912 7.496C19.7037 7.66129 19.8281 7.91545 19.8281 8.18469V17.782C19.8281 18.4762 19.5523 19.1419 19.0614 19.6328C18.5706 20.1237 17.9049 20.3994 17.2106 20.3994H4.99586C4.30167 20.3994 3.63592 20.1237 3.14505 19.6328C2.65418 19.1419 2.37842 18.4762 2.37842 17.782V8.18469C2.37842 7.91545 2.50272 7.66129 2.71525 7.496L10.5676 1.38862ZM4.12338 8.61141V17.782C4.12338 18.0134 4.21531 18.2353 4.37892 18.3989C4.54255 18.5625 4.76447 18.6545 4.99586 18.6545H17.2106C17.442 18.6545 17.664 18.5625 17.8275 18.3989C17.9911 18.2353 18.0831 18.0134 18.0831 17.782V8.61141L11.1032 3.18263L4.12338 8.61141Z" fill="#3BB77E"/>
<path fill-rule="evenodd" clip-rule="evenodd" d="M7.61279 10.8019C7.61279 10.3201 8.00342 9.92944 8.48528 9.92944H13.7202C14.202 9.92944 14.5927 10.3201 14.5927 10.8019V19.5267C14.5927 20.0086 14.202 20.3992 13.7202 20.3992C13.2383 20.3992 12.8477 20.0086 12.8477 19.5267V11.6744H9.35776V19.5267C9.35776 20.0086 8.96713 20.3992 8.48528 20.3992C8.00342 20.3992 7.61279 20.0086 7.61279 19.5267V10.8019Z" fill="#3BB77E"/>
</svg>
