<svg width="21" height="22" viewBox="0 0 21 22" fill="none" xmlns="http://www.w3.org/2000/svg">
<g clip-path="url(#clip0_57_5149)">
<path d="M14.5014 4.23143C13.5043 3.38637 12.4773 2.50973 11.4378 1.47356L10.8453 0.885254L10.2636 1.47439C8.39234 3.35064 7.50823 6.23149 7.12433 7.95984C6.83049 7.50441 6.61245 7.00434 6.4787 6.47912L6.12721 5.12219L5.10516 6.08276C3.3145 7.76374 2.12044 9.43143 2.12044 12.102C2.10372 14.0284 2.73111 15.9051 3.90298 17.434C5.07484 18.9629 6.72397 20.0566 8.58845 20.5411C9.15022 20.6777 9.72359 20.7611 10.301 20.7904C10.4815 20.8132 10.6633 20.8251 10.8453 20.8261C10.9408 20.8261 11.0339 20.8178 11.127 20.8119C13.3905 20.7438 15.5385 19.7963 17.1149 18.1704C18.6912 16.5445 19.572 14.3683 19.5701 12.1037C19.5701 8.53568 17.2211 6.54144 14.5014 4.23143ZM11.0115 19.1501C10.9283 19.1501 10.8453 19.1584 10.7572 19.1576C10.0093 19.1346 9.29955 18.8219 8.77794 18.2855C8.25635 17.749 7.96372 17.0307 7.96192 16.2825C7.96192 15.2289 8.52696 14.7037 9.80577 13.6152C10.1282 13.341 10.4788 13.0427 10.8478 12.7012C11.171 12.9945 11.4851 13.2604 11.7751 13.5072C13.0597 14.5973 13.7302 15.2164 13.7302 16.28C13.7288 17.015 13.4466 17.7216 12.9411 18.2552C12.4356 18.7887 11.7453 19.1089 11.0115 19.1501ZM15.1827 17.6784L15.1661 17.6901C15.3153 17.2357 15.3915 16.7607 15.3921 16.2825C15.3921 14.4004 14.1574 13.3518 12.8512 12.2425C12.3883 11.8503 11.9105 11.4448 11.4336 10.9678L10.8453 10.3804L10.2578 10.9678C9.71934 11.5055 9.19253 11.9542 8.72803 12.3497C7.42513 13.4581 6.29921 14.4163 6.29921 16.2825C6.30099 16.7812 6.38522 17.2762 6.54849 17.7474C5.68354 17.0833 4.98382 16.2281 4.50397 15.2488C4.02413 14.2696 3.77714 13.1926 3.78232 12.102C3.76865 10.6439 4.33301 9.23975 5.35195 8.19666C5.52746 8.55273 5.73553 8.89181 5.97349 9.20957C6.14729 9.44409 6.38591 9.62263 6.65995 9.72318C6.93399 9.82373 7.23146 9.84189 7.5157 9.77543C7.80486 9.71106 8.06936 9.56476 8.27757 9.35405C8.48578 9.14333 8.6289 8.8771 8.68982 8.58719C9.03774 6.67741 9.79024 4.86417 10.8968 3.26921C11.7734 4.10014 12.6418 4.83552 13.4253 5.5011C16.0278 7.71139 17.9124 9.30845 17.9124 12.107C17.9144 13.1828 17.6693 14.2446 17.1958 15.2107C16.7224 16.1767 16.0334 17.0209 15.182 17.6784H15.1827Z" fill="#253D4E"/>
</g>
<defs>
<clipPath id="clip0_57_5149">
<rect width="19.9425" height="20.9396" fill="white" transform="translate(0.875 0.332275)"/>
</clipPath>
</defs>
</svg>
