<svg width="41" height="41" viewBox="0 0 41 41" fill="none" xmlns="http://www.w3.org/2000/svg">
<path d="M20.5684 0.355469C15.1314 0.355469 14.4538 0.381722 12.3261 0.471733C10.1896 0.576746 8.74438 0.908038 7.46922 1.4031C6.15406 1.91816 5.03392 2.602 3.92753 3.71464C2.81364 4.82103 2.12355 5.94117 1.61599 7.25633C1.12093 8.53149 0.789637 9.97667 0.684624 12.1132C0.588362 14.2422 0.568359 14.9185 0.568359 20.3555C0.568359 25.7924 0.594613 26.47 0.684624 28.5977C0.789637 30.728 1.12093 32.1794 1.61599 33.4546C2.13105 34.7698 2.81489 35.8899 3.92753 36.9963C5.03392 38.1102 6.15406 38.8003 7.46922 39.3078C8.74438 39.7966 10.1958 40.1342 12.3261 40.2392C14.4551 40.3355 15.1314 40.3555 20.5684 40.3555C26.0053 40.3555 26.6829 40.3292 28.8106 40.2392C30.9409 40.1342 32.3923 39.7954 33.6675 39.3078C34.9827 38.7928 36.1028 38.1089 37.2092 36.9963C38.3231 35.8899 39.0132 34.776 39.5207 33.4546C40.0095 32.1794 40.3471 30.728 40.4521 28.5977C40.5484 26.4687 40.5684 25.7924 40.5684 20.3555C40.5684 14.9185 40.5421 14.241 40.4521 12.1132C40.3471 9.98292 40.0083 8.52399 39.5207 7.25633C39.0057 5.94117 38.3218 4.82103 37.2092 3.71464C36.1028 2.60075 34.9889 1.91066 33.6675 1.4031C32.3923 0.908038 30.9409 0.576746 28.8106 0.471733C26.6816 0.375471 26.0053 0.355469 20.5684 0.355469V0.355469ZM20.5684 3.95592C25.9078 3.95592 26.5454 3.98217 28.6556 4.07218C30.6021 4.16344 31.6622 4.48849 32.3661 4.76352C33.305 5.12732 33.9613 5.55737 34.6714 6.25996C35.3677 6.95629 35.7978 7.62013 36.1616 8.55899C36.4366 9.26283 36.7616 10.323 36.8529 12.2695C36.9429 14.3797 36.9692 15.0186 36.9692 20.3567C36.9692 25.6949 36.9429 26.3337 36.8454 28.444C36.7404 30.3905 36.4153 31.4506 36.1416 32.1544C35.7628 33.0933 35.3402 33.7496 34.6426 34.4597C33.9388 35.1561 33.2687 35.5861 32.3373 35.9499C31.6422 36.225 30.5671 36.55 28.6131 36.6413C26.4916 36.7313 25.8665 36.7575 20.5134 36.7575C15.1602 36.7575 14.5364 36.7313 12.4123 36.6338C10.4658 36.5287 9.39196 36.2037 8.68812 35.9299C7.73801 35.5511 7.08667 35.1286 6.38909 34.431C5.68525 33.7271 5.23769 33.0571 4.89265 32.1257C4.61261 31.4306 4.29257 30.3555 4.18881 28.4015C4.11755 26.305 4.0838 25.6549 4.0838 20.3267C4.0838 15.001 4.11755 14.3497 4.18881 12.227C4.29257 10.273 4.61261 9.20033 4.89265 8.50274C5.23769 7.55137 5.6865 6.90129 6.38909 6.19745C7.08542 5.50111 7.73801 5.05106 8.68812 4.69851C9.39196 4.42473 10.4396 4.09969 12.3936 4.00217C14.5151 3.92592 15.1402 3.89841 20.4858 3.89841L20.5684 3.95592ZM20.5684 10.0904C14.8914 10.0904 10.3008 14.6873 10.3008 20.358C10.3008 26.0349 14.8977 30.6255 20.5684 30.6255C26.2453 30.6255 30.8359 26.0287 30.8359 20.358C30.8359 14.681 26.2391 10.0904 20.5684 10.0904ZM20.5684 27.0251C16.8829 27.0251 13.9013 24.0434 13.9013 20.358C13.9013 16.6725 16.8829 13.6909 20.5684 13.6909C24.2538 13.6909 27.2354 16.6725 27.2354 20.358C27.2354 24.0434 24.2538 27.0251 20.5684 27.0251ZM33.65 9.68038C33.65 11.0093 32.5686 12.0819 31.2459 12.0819C29.917 12.0819 28.8444 11.0081 28.8444 9.68038C28.8444 8.35897 29.9245 7.28383 31.2459 7.28383C32.5674 7.28383 33.65 8.35897 33.65 9.68038Z" fill="#253D4E"/>
</svg>
