<svg width="22" height="22" viewBox="0 0 22 22" fill="none" xmlns="http://www.w3.org/2000/svg">
<path fill-rule="evenodd" clip-rule="evenodd" d="M19.2111 4.87271C19.4281 5.03769 19.5556 5.29467 19.5556 5.56731V16.0371C19.5556 16.3017 19.4355 16.5521 19.2291 16.7177C19.0226 16.8833 18.7522 16.9462 18.4939 16.8888L2.78917 13.3989C2.38998 13.3102 2.10596 12.9561 2.10596 12.5472V9.92973C2.10596 9.5378 2.3673 9.19397 2.74492 9.08907L18.4496 4.72666C18.7123 4.65369 18.994 4.70772 19.2111 4.87271ZM3.85092 10.5929V11.8473L17.8106 14.9495V6.71519L3.85092 10.5929Z" fill="#253D4E"/>
<path fill-rule="evenodd" clip-rule="evenodd" d="M5.65311 12.7528C6.11762 12.881 6.3903 13.3614 6.26216 13.8259C6.20097 14.0477 6.18407 14.2794 6.21242 14.5078C6.24077 14.7361 6.31382 14.9567 6.42741 15.1568C6.54099 15.3569 6.69287 15.5327 6.87439 15.6741C7.05591 15.8155 7.2635 15.9198 7.48532 15.981C7.70714 16.0422 7.93885 16.0591 8.1672 16.0308C8.39555 16.0024 8.61608 15.9293 8.8162 15.8158C9.01632 15.7022 9.19211 15.5503 9.33353 15.3688C9.47495 15.1873 9.57923 14.9797 9.64042 14.7578C9.76856 14.2933 10.249 14.0207 10.7135 14.1488C11.178 14.2769 11.4507 14.7574 11.3226 15.2219C11.2004 15.6646 10.9923 16.0789 10.71 16.4412C10.4278 16.8035 10.0769 17.1066 9.67752 17.3333C9.27811 17.56 8.83797 17.7058 8.38221 17.7624C7.92645 17.819 7.46401 17.7853 7.02129 17.6631C6.57857 17.541 6.16424 17.3329 5.80195 17.0506C5.43967 16.7684 5.13653 16.4175 4.90983 16.0181C4.68314 15.6187 4.53734 15.1786 4.48075 14.7228C4.42416 14.267 4.4579 13.8046 4.58003 13.3619C4.70817 12.8974 5.1886 12.6247 5.65311 12.7528Z" fill="#253D4E"/>
</svg>
