<svg width="22" height="22" viewBox="0 0 22 22" fill="none" xmlns="http://www.w3.org/2000/svg">
<path d="M0 2.04956V19.9503H22V2.04956H0ZM2.18629 17.7639V4.23603H19.8137V17.7639H2.18629Z" fill="#253D4E"/>
<path d="M17.9002 6.83228H10.248V8.33554H17.9002V6.83228Z" fill="#253D4E"/>
<path d="M17.9002 10.2483H10.248V11.7516H17.9002V10.2483Z" fill="#253D4E"/>
<path d="M17.9008 13.6646H4.09961V15.1678H17.9008V13.6646Z" fill="#253D4E"/>
<path d="M6.55914 8.78549C7.38014 8.78549 8.04809 8.11742 8.04809 7.29641C8.04809 6.47541 7.3801 5.80737 6.55914 5.80737C5.73818 5.80737 5.07031 6.47541 5.07031 7.29641C5.07031 8.11742 5.73818 8.78549 6.55914 8.78549Z" fill="#253D4E"/>
<path d="M8.21971 10.6531C8.21971 10.0849 7.82113 9.40086 7.31229 9.09578L7.29614 9.08594H5.82201L5.80585 9.09578C5.29702 9.40086 4.89844 10.0849 4.89844 10.6531V11.7516H8.21975V10.6531H8.21971Z" fill="#253D4E"/>
</svg>
