<svg width="22" height="22" viewBox="0 0 22 22" fill="none" xmlns="http://www.w3.org/2000/svg">
<path fill-rule="evenodd" clip-rule="evenodd" d="M17.3131 4.07757C17.6538 4.41829 17.6538 4.97072 17.3131 5.31144L5.09831 17.5262C4.75758 17.8669 4.20516 17.8669 3.86443 17.5262C3.52371 17.1855 3.52371 16.633 3.86443 16.2923L16.0792 4.07757C16.4199 3.73684 16.9723 3.73684 17.3131 4.07757Z" fill="#253D4E"/>
<path fill-rule="evenodd" clip-rule="evenodd" d="M5.7905 4.69467C5.06772 4.69467 4.48178 5.28061 4.48178 6.00339C4.48178 6.72618 5.06772 7.31212 5.7905 7.31212C6.51329 7.31212 7.09923 6.72618 7.09923 6.00339C7.09923 5.28061 6.51329 4.69467 5.7905 4.69467ZM2.73682 6.00339C2.73682 4.31689 4.104 2.94971 5.7905 2.94971C7.47701 2.94971 8.84419 4.31689 8.84419 6.00339C8.84419 7.6899 7.47701 9.05708 5.7905 9.05708C4.104 9.05708 2.73682 7.6899 2.73682 6.00339Z" fill="#253D4E"/>
<path fill-rule="evenodd" clip-rule="evenodd" d="M15.3877 14.2921C14.6649 14.2921 14.0789 14.878 14.0789 15.6008C14.0789 16.3236 14.6649 16.9095 15.3877 16.9095C16.1105 16.9095 16.6964 16.3236 16.6964 15.6008C16.6964 14.878 16.1105 14.2921 15.3877 14.2921ZM12.334 15.6008C12.334 13.9143 13.7012 12.5471 15.3877 12.5471C17.0742 12.5471 18.4414 13.9143 18.4414 15.6008C18.4414 17.2873 17.0742 18.6545 15.3877 18.6545C13.7012 18.6545 12.334 17.2873 12.334 15.6008Z" fill="#253D4E"/>
</svg>
