<svg width="22" height="22" viewBox="0 0 22 22" fill="none" xmlns="http://www.w3.org/2000/svg">
<g clip-path="url(#clip0_453_1590)">
<path d="M10.4842 21.4822C4.70437 21.4822 0.00195312 16.7798 0.00195312 11C0.00195312 5.22024 4.70437 0.517822 10.4842 0.517822C13.8491 0.517822 17.0328 2.15128 19.0003 4.88697C19.0268 4.92403 19.0376 4.97009 19.0302 5.01508C19.0229 5.06006 18.998 5.10029 18.961 5.12695C18.8835 5.18199 18.7764 5.16489 18.721 5.08768C16.818 2.44128 13.7387 0.861529 10.4842 0.861529C4.89365 0.861486 0.34566 5.40951 0.34566 11C0.34566 16.5905 4.89369 21.1385 10.4842 21.1385C16.0746 21.1385 20.6227 16.5905 20.6227 11C20.6227 10.9774 20.6271 10.9551 20.6357 10.9342C20.6444 10.9134 20.657 10.8944 20.673 10.8785C20.6889 10.8625 20.7079 10.8498 20.7288 10.8412C20.7496 10.8326 20.772 10.8282 20.7945 10.8282C20.8171 10.8282 20.8394 10.8326 20.8603 10.8412C20.8812 10.8499 20.9001 10.8625 20.9161 10.8785C20.932 10.8944 20.9447 10.9134 20.9533 10.9342C20.9619 10.9551 20.9664 10.9774 20.9664 11C20.9664 16.7798 16.264 21.4822 10.4842 21.4822Z" fill="#253D4E"/>
<path d="M21.8259 12.2028C21.8033 12.2029 21.781 12.1984 21.7601 12.1898C21.7393 12.1811 21.7203 12.1685 21.7044 12.1525L20.6734 11.1214C20.6574 11.1055 20.6448 11.0865 20.6361 11.0657C20.6275 11.0448 20.623 11.0225 20.623 10.9999C20.623 10.9774 20.6275 10.955 20.6361 10.9342C20.6448 10.9133 20.6574 10.8944 20.6734 10.8784C20.6893 10.8625 20.7083 10.8498 20.7291 10.8412C20.75 10.8326 20.7723 10.8281 20.7949 10.8281C20.8174 10.8281 20.8398 10.8326 20.8606 10.8412C20.8815 10.8498 20.9004 10.8625 20.9164 10.8784L21.9474 11.9095C21.9634 11.9255 21.976 11.9444 21.9846 11.9653C21.9933 11.9861 21.9977 12.0084 21.9977 12.031C21.9977 12.0536 21.9933 12.0759 21.9846 12.0967C21.976 12.1176 21.9634 12.1365 21.9474 12.1525C21.9315 12.1685 21.9125 12.1812 21.8917 12.1898C21.8708 12.1984 21.8485 12.2029 21.8259 12.2028Z" fill="#253D4E"/>
<path d="M19.7638 12.203C19.7298 12.203 19.6965 12.1929 19.6682 12.1741C19.64 12.1552 19.6179 12.1284 19.6049 12.0969C19.5919 12.0655 19.5885 12.031 19.5951 11.9976C19.6018 11.9643 19.6182 11.9337 19.6423 11.9097L20.6733 10.8786C20.6892 10.8626 20.7082 10.85 20.729 10.8413C20.7499 10.8327 20.7722 10.8282 20.7948 10.8282C20.8173 10.8282 20.8397 10.8327 20.8605 10.8413C20.8814 10.85 20.9003 10.8626 20.9163 10.8786C20.9322 10.8945 20.9449 10.9135 20.9535 10.9343C20.9622 10.9552 20.9666 10.9775 20.9666 11.0001C20.9666 11.0226 20.9622 11.045 20.9535 11.0658C20.9449 11.0867 20.9322 11.1056 20.9163 11.1216L19.8852 12.1526C19.8693 12.1686 19.8504 12.1813 19.8295 12.1899C19.8087 12.1986 19.7863 12.203 19.7638 12.203ZM15.6396 15.8116H6.0166C5.9216 15.8116 5.84473 15.7347 5.84473 15.6398V8.07881C5.84472 8.05624 5.84915 8.03389 5.85779 8.01303C5.86642 7.99218 5.87908 7.97323 5.89505 7.95727C5.91101 7.94131 5.92996 7.92866 5.95082 7.92003C5.97168 7.9114 5.99403 7.90697 6.0166 7.90698H15.6396C15.7346 7.90698 15.8115 7.98385 15.8115 8.07881V15.6398C15.8115 15.6623 15.807 15.6847 15.7984 15.7055C15.7898 15.7264 15.7771 15.7453 15.7612 15.7613C15.7452 15.7773 15.7262 15.7899 15.7054 15.7985C15.6845 15.8072 15.6622 15.8116 15.6396 15.8116ZM6.18843 15.4679H15.4677V8.25065H6.18843V15.4679Z" fill="#253D4E"/>
<path d="M15.6395 8.25059H6.0165C5.98251 8.25058 5.9493 8.24051 5.92104 8.22163C5.89278 8.20276 5.87075 8.17593 5.85773 8.14454C5.84478 8.11313 5.84141 8.0786 5.84804 8.04528C5.85467 8.01196 5.871 7.98135 5.89498 7.95728L7.26972 6.58259C7.28567 6.56662 7.30462 6.55395 7.32547 6.54531C7.34632 6.53667 7.36867 6.53222 7.39124 6.53223H14.2648C14.3105 6.53223 14.3541 6.55036 14.3863 6.58259L15.761 7.95728C15.785 7.98135 15.8013 8.01196 15.808 8.04528C15.8146 8.0786 15.8112 8.11313 15.7983 8.14454C15.7853 8.17593 15.7632 8.20276 15.735 8.22163C15.7067 8.24051 15.6735 8.25058 15.6395 8.25059ZM6.43136 7.90693H15.2247L14.1937 6.87589H7.46235L6.43136 7.90693Z" fill="#253D4E"/>
<path d="M9.79676 8.25065C9.76749 8.2506 9.73871 8.24308 9.71315 8.22881C9.68759 8.21453 9.6661 8.19397 9.6507 8.16907C9.63531 8.14417 9.62653 8.11575 9.62518 8.0865C9.62384 8.05726 9.62998 8.02816 9.64302 8.00195L10.3304 6.62721C10.3734 6.54264 10.4761 6.50805 10.561 6.55033C10.6017 6.57074 10.6327 6.60649 10.6471 6.64972C10.6615 6.69295 10.6582 6.74013 10.6378 6.7809L9.95046 8.1556C9.93617 8.18413 9.91423 8.20813 9.88709 8.22491C9.85994 8.2417 9.82867 8.25061 9.79676 8.25065ZM11.8588 8.25065C11.8269 8.25061 11.7957 8.24171 11.7685 8.22494C11.7414 8.20818 11.7194 8.1842 11.7051 8.15569L11.0178 6.78099C10.9974 6.74021 10.9941 6.69303 11.0085 6.6498C11.0229 6.60657 11.0539 6.57083 11.0946 6.55042C11.1148 6.54031 11.1368 6.53427 11.1593 6.53266C11.1818 6.53105 11.2044 6.5339 11.2259 6.54104C11.2473 6.54818 11.2671 6.55947 11.2841 6.57427C11.3012 6.58907 11.3151 6.60709 11.3252 6.62729L12.0125 8.00203C12.0329 8.04281 12.0362 8.08999 12.0218 8.13322C12.0074 8.17645 11.9764 8.21219 11.9357 8.2326C11.9118 8.2445 11.8855 8.25068 11.8588 8.25065Z" fill="#253D4E"/>
<path d="M9.79683 9.62519C9.77426 9.6252 9.75191 9.62076 9.73105 9.61213C9.7102 9.60349 9.69125 9.59083 9.67529 9.57487C9.65933 9.55891 9.64667 9.53995 9.63804 9.5191C9.62942 9.49824 9.62498 9.47588 9.625 9.45331V8.07857C9.625 7.98361 9.70187 7.90674 9.79683 7.90674C9.89179 7.90674 9.96866 7.98361 9.96866 8.07857V9.45331C9.96866 9.54832 9.89179 9.62519 9.79683 9.62519Z" fill="#253D4E"/>
<path d="M11.8589 9.6252H9.79683C9.70187 9.6252 9.625 9.54833 9.625 9.45333C9.625 9.35832 9.70187 9.28149 9.79683 9.28149H11.8589C11.9539 9.28149 12.0307 9.35837 12.0307 9.45333C12.0307 9.54829 11.9539 9.6252 11.8589 9.6252Z" fill="#253D4E"/>
<path d="M11.8589 9.62519C11.8363 9.6252 11.814 9.62076 11.7931 9.61213C11.7723 9.60349 11.7533 9.59083 11.7374 9.57487C11.7214 9.55891 11.7087 9.53995 11.7001 9.5191C11.6915 9.49824 11.6871 9.47588 11.6871 9.45331V8.07857C11.6871 8.056 11.6915 8.03365 11.7001 8.0128C11.7088 7.99195 11.7214 7.973 11.7374 7.95704C11.7533 7.94108 11.7723 7.92843 11.7931 7.91979C11.814 7.91116 11.8363 7.90673 11.8589 7.90674C11.8815 7.90673 11.9038 7.91116 11.9247 7.91979C11.9455 7.92843 11.9645 7.94108 11.9804 7.95704C11.9964 7.973 12.009 7.99195 12.0177 8.0128C12.0263 8.03365 12.0307 8.056 12.0307 8.07857V9.45331C12.0307 9.54832 11.9539 9.62519 11.8589 9.62519ZM9.79683 9.79702C9.77426 9.79703 9.75191 9.79259 9.73106 9.78396C9.71021 9.77533 9.69126 9.76267 9.6753 9.74672C9.65934 9.73076 9.64669 9.71181 9.63806 9.69096C9.62943 9.6701 9.62499 9.64776 9.625 9.62519V9.45331C9.625 9.35835 9.70187 9.28148 9.79683 9.28148C9.89179 9.28148 9.96866 9.35835 9.96866 9.45331V9.62519C9.96868 9.64776 9.96424 9.6701 9.95561 9.69096C9.94698 9.71181 9.93432 9.73076 9.91836 9.74672C9.9024 9.76267 9.88346 9.77533 9.8626 9.78396C9.84175 9.79259 9.8194 9.79703 9.79683 9.79702ZM10.4842 9.79702C10.3892 9.79702 10.3123 9.72015 10.3123 9.62519V9.45331C10.3123 9.43074 10.3168 9.40839 10.3254 9.38753C10.334 9.36668 10.3467 9.34773 10.3626 9.33177C10.3786 9.31581 10.3976 9.30315 10.4184 9.29452C10.4393 9.2859 10.4616 9.28146 10.4842 9.28148C10.5068 9.28147 10.5291 9.28591 10.55 9.29454C10.5708 9.30317 10.5898 9.31583 10.6057 9.33178C10.6217 9.34774 10.6343 9.36669 10.643 9.38754C10.6516 9.40839 10.656 9.43074 10.656 9.45331V9.62519C10.656 9.64776 10.6516 9.6701 10.643 9.69096C10.6343 9.71181 10.6217 9.73076 10.6057 9.74672C10.5898 9.76267 10.5708 9.77533 10.55 9.78396C10.5291 9.79259 10.5068 9.79703 10.4842 9.79702ZM11.1715 9.79702C11.149 9.79703 11.1266 9.79259 11.1058 9.78396C11.0849 9.77533 11.066 9.76267 11.05 9.74672C11.034 9.73076 11.0214 9.71181 11.0128 9.69096C11.0041 9.6701 10.9997 9.64776 10.9997 9.62519V9.45331C10.9997 9.43074 11.0041 9.40839 11.0128 9.38754C11.0214 9.36669 11.034 9.34774 11.05 9.33178C11.066 9.31583 11.0849 9.30317 11.1058 9.29454C11.1266 9.28591 11.149 9.28147 11.1715 9.28148C11.2665 9.28148 11.3434 9.35835 11.3434 9.45331V9.62519C11.3434 9.64776 11.339 9.67011 11.3303 9.69097C11.3217 9.71182 11.3091 9.73077 11.2931 9.74673C11.2771 9.76269 11.2582 9.77535 11.2373 9.78397C11.2165 9.7926 11.1941 9.79704 11.1715 9.79702Z" fill="#253D4E"/>
<path d="M11.8593 9.79703C11.8367 9.79704 11.8144 9.79261 11.7935 9.78398C11.7727 9.77535 11.7537 9.76269 11.7377 9.74673C11.7218 9.73077 11.7091 9.71182 11.7005 9.69097C11.6919 9.67012 11.6874 9.64777 11.6874 9.6252V9.45333C11.6874 9.43076 11.6919 9.40841 11.7005 9.38756C11.7091 9.3667 11.7218 9.34776 11.7377 9.3318C11.7537 9.31584 11.7727 9.30318 11.7935 9.29455C11.8144 9.28592 11.8367 9.28148 11.8593 9.28149C11.8818 9.28148 11.9042 9.28592 11.925 9.29455C11.9459 9.30318 11.9648 9.31584 11.9808 9.3318C11.9968 9.34776 12.0094 9.3667 12.0181 9.38756C12.0267 9.40841 12.0311 9.43076 12.0311 9.45333V9.6252C12.0311 9.64777 12.0267 9.67012 12.0181 9.69097C12.0094 9.71182 11.9968 9.73077 11.9808 9.74673C11.9648 9.76269 11.9459 9.77535 11.925 9.78398C11.9042 9.79261 11.8818 9.79704 11.8593 9.79703ZM14.9524 15.124H14.265C14.2424 15.1241 14.2201 15.1196 14.1992 15.111C14.1784 15.1023 14.1594 15.0897 14.1435 15.0737C14.1275 15.0578 14.1149 15.0388 14.1062 15.0179C14.0976 14.9971 14.0932 14.9747 14.0932 14.9522V14.2648C14.0932 14.1698 14.1701 14.093 14.265 14.093H14.9524C14.975 14.093 14.9973 14.0974 15.0182 14.106C15.039 14.1147 15.058 14.1273 15.0739 14.1433C15.0899 14.1592 15.1025 14.1782 15.1112 14.1991C15.1198 14.2199 15.1242 14.2423 15.1242 14.2648V14.9522C15.1242 15.0472 15.0473 15.124 14.9524 15.124ZM14.4368 14.7803H14.7805V14.4367H14.4368V14.7803ZM13.5776 15.124H12.8903C12.8677 15.1241 12.8454 15.1196 12.8245 15.111C12.8037 15.1023 12.7847 15.0897 12.7688 15.0737C12.7528 15.0578 12.7402 15.0388 12.7315 15.0179C12.7229 14.9971 12.7185 14.9747 12.7185 14.9522V14.2648C12.7185 14.1698 12.7953 14.093 12.8903 14.093H13.5776C13.6726 14.093 13.7495 14.1698 13.7495 14.2648V14.9522C13.7495 15.0472 13.6726 15.124 13.5776 15.124ZM13.0621 14.7803H13.4058V14.4367H13.0621V14.7803ZM10.1409 14.4367H6.70406C6.68149 14.4367 6.65914 14.4322 6.63829 14.4236C6.61744 14.415 6.59849 14.4023 6.58253 14.3864C6.56657 14.3704 6.55392 14.3515 6.54528 14.3306C6.53665 14.3098 6.53222 14.2874 6.53223 14.2648C6.53223 14.1698 6.6091 14.093 6.70406 14.093H10.1409C10.1634 14.093 10.1858 14.0974 10.2067 14.106C10.2275 14.1147 10.2465 14.1273 10.2624 14.1433C10.2784 14.1592 10.291 14.1782 10.2997 14.1991C10.3083 14.2199 10.3127 14.2423 10.3127 14.2648C10.3127 14.2874 10.3083 14.3098 10.2996 14.3306C10.291 14.3515 10.2784 14.3704 10.2624 14.3864C10.2464 14.4023 10.2275 14.415 10.2066 14.4236C10.1858 14.4322 10.1634 14.4367 10.1409 14.4367ZM8.42251 15.124H6.7041C6.68153 15.1241 6.65918 15.1196 6.63832 15.111C6.61747 15.1023 6.59852 15.0897 6.58256 15.0737C6.5666 15.0578 6.55394 15.0388 6.54531 15.0179C6.53669 14.9971 6.53225 14.9747 6.53227 14.9522C6.53226 14.9296 6.5367 14.9072 6.54533 14.8864C6.55396 14.8655 6.56661 14.8466 6.58257 14.8306C6.59853 14.8147 6.61748 14.802 6.63833 14.7934C6.65918 14.7848 6.68153 14.7803 6.7041 14.7803H8.42251C8.44508 14.7803 8.46743 14.7848 8.48828 14.7934C8.50913 14.802 8.52808 14.8147 8.54404 14.8306C8.56 14.8466 8.57265 14.8655 8.58128 14.8864C8.58991 14.9072 8.59435 14.9296 8.59434 14.9522C8.59434 15.0472 8.51747 15.124 8.42251 15.124Z" fill="#253D4E"/>
</g>
<defs>
<clipPath id="clip0_453_1590">
<rect width="22" height="22" fill="white"/>
</clipPath>
</defs>
</svg>
