<svg width="25" height="25" viewBox="0 0 25 25" fill="none" xmlns="http://www.w3.org/2000/svg">
<path fill-rule="evenodd" clip-rule="evenodd" d="M20.3857 12.2861C20.3857 12.8453 19.9325 13.2986 19.3733 13.2986L5.1992 13.2986C4.64005 13.2986 4.18676 12.8453 4.18676 12.2861C4.18676 11.727 4.64005 11.2737 5.1992 11.2737L19.3733 11.2737C19.9325 11.2737 20.3857 11.727 20.3857 12.2861Z" fill="#253D4E"/>
<path fill-rule="evenodd" clip-rule="evenodd" d="M13.0023 20.089C12.6069 20.4843 11.9659 20.4843 11.5705 20.089L4.48344 13.0019C4.08806 12.6065 4.08806 11.9655 4.48344 11.5701L11.5705 4.48305C11.9659 4.08767 12.6069 4.08767 13.0023 4.48306C13.3977 4.87844 13.3977 5.51948 13.0023 5.91486L6.63114 12.286L13.0023 18.6572C13.3977 19.0525 13.3977 19.6936 13.0023 20.089Z" fill="#253D4E"/>
</svg>
