<svg width="25" height="25" viewBox="0 0 25 25" fill="none" xmlns="http://www.w3.org/2000/svg">
<path fill-rule="evenodd" clip-rule="evenodd" d="M4.18652 12.2861C4.18652 11.727 4.63981 11.2737 5.19896 11.2737H19.3731C19.9322 11.2737 20.3855 11.727 20.3855 12.2861C20.3855 12.8453 19.9322 13.2986 19.3731 13.2986H5.19896C4.63981 13.2986 4.18652 12.8453 4.18652 12.2861Z" fill="#253D4E"/>
<path fill-rule="evenodd" clip-rule="evenodd" d="M11.57 4.4833C11.9654 4.08792 12.6064 4.08792 13.0018 4.4833L20.0888 11.5704C20.4842 11.9657 20.4842 12.6068 20.0888 13.0022L13.0018 20.0892C12.6064 20.4846 11.9654 20.4846 11.57 20.0892C11.1746 19.6938 11.1746 19.0528 11.57 18.6574L17.9411 12.2863L11.57 5.9151C11.1746 5.51972 11.1746 4.87868 11.57 4.4833Z" fill="#253D4E"/>
</svg>
