<svg width="26" height="26" viewBox="0 0 26 26" fill="none" xmlns="http://www.w3.org/2000/svg">
<path fill-rule="evenodd" clip-rule="evenodd" d="M12.1142 4.57382C8.0666 4.57382 4.78536 7.85505 4.78536 11.9027C4.78536 15.9503 8.0666 19.2315 12.1142 19.2315C16.1618 19.2315 19.4431 15.9503 19.4431 11.9027C19.4431 7.85505 16.1618 4.57382 12.1142 4.57382ZM2.69141 11.9027C2.69141 6.69859 6.91014 2.47986 12.1142 2.47986C17.3183 2.47986 21.537 6.69859 21.537 11.9027C21.537 17.1067 17.3183 21.3255 12.1142 21.3255C6.91014 21.3255 2.69141 17.1067 2.69141 11.9027Z" fill="white"/>
<path fill-rule="evenodd" clip-rule="evenodd" d="M17.2896 17.0778C17.6984 16.6689 18.3613 16.6689 18.7702 17.0778L23.3246 21.6321C23.7334 22.041 23.7334 22.7039 23.3246 23.1128C22.9157 23.5217 22.2528 23.5217 21.8439 23.1128L17.2896 18.5584C16.8807 18.1496 16.8807 17.4866 17.2896 17.0778Z" fill="white"/>
</svg>
