<svg width="22" height="22" viewBox="0 0 22 22" fill="none" xmlns="http://www.w3.org/2000/svg">
<path d="M12.8981 0C13.0645 5.242e-06 13.2265 0.052806 13.3609 0.150798C13.4953 0.24879 13.5952 0.386917 13.6461 0.545286L14.5104 3.23086C14.8734 3.40843 15.2207 3.608 15.5522 3.83271L18.3117 3.23871C18.4744 3.20398 18.6439 3.22178 18.7958 3.28956C18.9478 3.35733 19.0743 3.47159 19.1571 3.61586L21.3351 7.38571C21.4183 7.5299 21.4535 7.69678 21.4357 7.86228C21.4179 8.02778 21.348 8.18336 21.2361 8.30657L19.3425 10.3966C19.3701 10.7973 19.3701 11.1995 19.3425 11.6003L21.2361 13.6934C21.348 13.8166 21.4179 13.9722 21.4357 14.1377C21.4535 14.3032 21.4183 14.4701 21.3351 14.6143L19.1571 18.3857C19.074 18.5297 18.9474 18.6436 18.7955 18.7111C18.6436 18.7786 18.4742 18.7962 18.3117 18.7613L15.5522 18.1673C15.2222 18.3904 14.8734 18.5916 14.512 18.7691L13.6461 21.4547C13.5952 21.6131 13.4953 21.7512 13.3609 21.8492C13.2265 21.9472 13.0645 22 12.8981 22H8.5421C8.37576 22 8.2137 21.9472 8.07928 21.8492C7.94486 21.7512 7.84501 21.6131 7.79411 21.4547L6.93139 18.7707C6.56937 18.5937 6.22018 18.3915 5.88639 18.1657L3.12853 18.7613C2.96584 18.796 2.79631 18.7782 2.64438 18.7104C2.49245 18.6427 2.36595 18.5284 2.28311 18.3841L0.105106 14.6143C0.0219374 14.4701 -0.0132903 14.3032 0.00450253 14.1377C0.0222953 13.9722 0.0921891 13.8166 0.204106 13.6934L2.09768 11.6003C2.07025 11.2006 2.07025 10.7994 2.09768 10.3997L0.204106 8.30657C0.0921891 8.18336 0.0222953 8.02778 0.00450253 7.86228C-0.0132903 7.69678 0.0219374 7.5299 0.105106 7.38571L2.28311 3.61429C2.36618 3.4703 2.49277 3.35637 2.64469 3.28889C2.7966 3.2214 2.96601 3.20384 3.12853 3.23871L5.88639 3.83429C6.21953 3.60957 6.56839 3.40686 6.93139 3.22929L7.79568 0.545286C7.84641 0.387427 7.94579 0.249666 8.07958 0.151721C8.21337 0.0537765 8.37472 0.000668906 8.54053 0H12.8965H12.8981ZM12.323 1.57143H9.11725L8.22468 4.34814L7.62282 4.642C7.32695 4.78679 7.04133 4.95165 6.76796 5.13543L6.21168 5.51257L3.35796 4.89657L1.75511 7.67486L3.71153 9.84029L3.66439 10.5066C3.64181 10.8351 3.64181 11.1649 3.66439 11.4934L3.71153 12.1597L1.75196 14.3251L3.35639 17.1034L6.21011 16.489L6.76639 16.8646C7.03976 17.0484 7.32538 17.2132 7.62125 17.358L8.2231 17.6519L9.11725 20.4286H12.3261L13.2218 17.6503L13.8221 17.358C14.1177 17.2136 14.4028 17.0487 14.6754 16.8646L15.2301 16.489L18.0854 17.1034L19.6882 14.3251L17.7302 12.1597L17.7774 11.4934C17.8 11.1643 17.8 10.8341 17.7774 10.505L17.7302 9.83871L19.6898 7.67486L18.0854 4.89657L15.2301 5.50943L14.6754 5.13543C14.4028 4.95128 14.1177 4.7864 13.8221 4.642L13.2218 4.34971L12.3245 1.57143H12.323ZM10.7201 6.28571C11.9704 6.28571 13.1695 6.7824 14.0536 7.6665C14.9377 8.5506 15.4344 9.74969 15.4344 11C15.4344 12.2503 14.9377 13.4494 14.0536 14.3335C13.1695 15.2176 11.9704 15.7143 10.7201 15.7143C9.4698 15.7143 8.2707 15.2176 7.3866 14.3335C6.5025 13.4494 6.00582 12.2503 6.00582 11C6.00582 9.74969 6.5025 8.5506 7.3866 7.6665C8.2707 6.7824 9.4698 6.28571 10.7201 6.28571ZM10.7201 7.85714C9.88657 7.85714 9.08717 8.18826 8.49777 8.77766C7.90837 9.36706 7.57725 10.1665 7.57725 11C7.57725 11.8335 7.90837 12.6329 8.49777 13.2223C9.08717 13.8117 9.88657 14.1429 10.7201 14.1429C11.5536 14.1429 12.353 13.8117 12.9424 13.2223C13.5318 12.6329 13.863 11.8335 13.863 11C13.863 10.1665 13.5318 9.36706 12.9424 8.77766C12.353 8.18826 11.5536 7.85714 10.7201 7.85714Z" fill="#253D4E"/>
</svg>
