<svg width="13" height="14" viewBox="0 0 13 14" fill="none" xmlns="http://www.w3.org/2000/svg">
<g clip-path="url(#clip0_100_1436)">
<path fill-rule="evenodd" clip-rule="evenodd" d="M3.90039 11.5598C3.90039 11.0006 4.35367 10.5474 4.91283 10.5474C5.47198 10.5474 5.92526 11.0006 5.92526 11.5598C5.92526 12.119 5.47198 12.5722 4.91283 12.5722C4.35367 12.5722 3.90039 12.119 3.90039 11.5598Z" fill="white"/>
<path fill-rule="evenodd" clip-rule="evenodd" d="M9.46875 11.5598C9.46875 11.0006 9.92203 10.5474 10.4812 10.5474C11.0403 10.5474 11.4936 11.0006 11.4936 11.5598C11.4936 12.119 11.0403 12.5722 10.4812 12.5722C9.92203 12.5722 9.46875 12.119 9.46875 11.5598Z" fill="white"/>
<path fill-rule="evenodd" clip-rule="evenodd" d="M0.356934 1.43542C0.356934 1.15584 0.583575 0.929199 0.863152 0.929199H2.88802C3.1293 0.929199 3.33704 1.09948 3.3844 1.33607L3.80956 3.46029H11.9999C12.1508 3.46029 12.2938 3.52758 12.39 3.64382C12.4862 3.76006 12.5255 3.91314 12.4972 4.06134L11.6865 8.3123C11.6171 8.66189 11.4269 8.97592 11.1493 9.19942C10.873 9.4218 10.5277 9.54046 10.1732 9.53491H5.2615C4.90701 9.54046 4.56168 9.4218 4.28543 9.19942C4.0079 8.97601 3.81776 8.66215 3.74826 8.31273C3.74823 8.31258 3.74828 8.31287 3.74826 8.31273L2.9026 4.0876C2.89917 4.07362 2.89632 4.05942 2.89407 4.04501L2.47309 1.94164H0.863152C0.583575 1.94164 0.356934 1.71499 0.356934 1.43542ZM4.0122 4.47273L4.74121 8.11506C4.76435 8.23159 4.82775 8.33626 4.92029 8.41076C5.01284 8.48526 5.12864 8.52484 5.24743 8.52256L5.25712 8.52247H10.1776L10.1873 8.52256C10.306 8.52484 10.4219 8.48526 10.5144 8.41076C10.6065 8.33661 10.6697 8.23256 10.6932 8.11668L11.3881 4.47273H4.0122Z" fill="white"/>
</g>
<defs>
<clipPath id="clip0_100_1436">
<rect width="12.1492" height="12.1492" fill="white" transform="translate(0.356934 0.929199)"/>
</clipPath>
</defs>
</svg>
