<svg width="27" height="34" viewBox="0 0 27 34" fill="none" xmlns="http://www.w3.org/2000/svg">
<path d="M2.25005 32.0625C2.24667 32.506 2.41932 32.9327 2.73012 33.249C3.04092 33.5654 3.46449 33.7455 3.90795 33.75H23.0921C23.5356 33.7455 23.9592 33.5654 24.27 33.249C24.5808 32.9327 24.7534 32.506 24.75 32.0625V9.5625H2.25005V32.0625ZM4.50005 11.8125H22.5V31.5H4.50005V11.8125Z" fill="#757575"/>
<path d="M9.5625 14.0625H7.3125V28.125H9.5625V14.0625Z" fill="#757575"/>
<path d="M14.625 14.0625H12.375V28.125H14.625V14.0625Z" fill="#757575"/>
<path d="M19.6875 14.0625H17.4375V28.125H19.6875V14.0625Z" fill="#757575"/>
<path d="M18.5625 5.0625V1.6875C18.5625 0.741234 17.8954 0 17.0437 0H9.95625C9.10463 0 8.4375 0.741234 8.4375 1.6875V5.0625H0V7.3125H27V5.0625H18.5625ZM10.6875 2.25H16.3125V5.0625H10.6875V2.25Z" fill="#757575"/>
</svg>
