<svg width="41" height="33" viewBox="0 0 41 33" fill="none" xmlns="http://www.w3.org/2000/svg">
<path d="M40.4921 4.22922C39.0209 4.87422 37.4459 5.31797 35.7859 5.51922C37.4796 4.50297 38.7746 2.89547 39.3921 0.980469C37.8034 1.90547 36.0459 2.57547 34.1771 2.95422C32.6871 1.35922 30.5571 0.355469 28.1934 0.355469C23.6621 0.355469 19.9896 4.02672 19.9896 8.55172C19.9896 9.20297 20.0684 9.82797 20.2046 10.4205C13.3884 10.1017 7.34586 6.82672 3.30461 1.87922C2.59461 3.08422 2.19086 4.48422 2.19086 6.00797C2.19086 8.85922 3.64211 11.3592 5.83586 12.8292C4.49461 12.7905 3.23211 12.4192 2.12586 11.808V11.9067C2.12586 15.883 4.95086 19.198 8.70086 19.953C8.01711 20.1342 7.28711 20.2392 6.54586 20.2392C6.01961 20.2392 5.51711 20.188 5.01586 20.0955C6.07086 23.3505 9.09086 25.7205 12.6909 25.7917C9.89211 27.9855 6.34461 29.293 2.52211 29.293C1.87086 29.293 1.22086 29.2617 0.568359 29.183C4.21461 31.508 8.51836 32.868 13.1671 32.868C28.2509 32.868 36.4934 20.3742 36.4934 9.55422C36.4934 9.20922 36.4934 8.85797 36.4671 8.50547C38.0759 7.35922 39.4684 5.90672 40.5684 4.26047L40.4921 4.22922Z" fill="#253D4E"/>
</svg>
