<svg width="22" height="17" viewBox="0 0 22 17" fill="none" xmlns="http://www.w3.org/2000/svg">
<path d="M20.4992 0.000893409H17.9994C17.7357 0.00465015 17.4841 0.11247 17.2995 0.300869L15.9996 1.60076L14.6997 0.300869C14.5151 0.11247 14.2635 0.00465015 13.9998 0.000893409H1.50077C1.30192 -0.00609024 1.10377 0.027929 0.918633 0.100833C0.7335 0.173738 0.565354 0.283967 0.424661 0.424661C0.283967 0.565354 0.173738 0.7335 0.100833 0.918633C0.0279288 1.10377 -0.00609024 1.30192 0.000893412 1.50077V15.4996C-0.00609024 15.6985 0.0279288 15.8966 0.100833 16.0818C0.173738 16.2669 0.283967 16.435 0.424661 16.5757C0.565354 16.7164 0.7335 16.8267 0.918633 16.8996C1.10377 16.9725 1.30192 17.0065 1.50077 16.9995H13.9998C14.2635 16.9958 14.5151 16.8879 14.6997 16.6995L15.9996 15.3996L17.2995 16.6995C17.4841 16.8879 17.7357 16.9958 17.9994 16.9995H20.4992C20.6981 17.0065 20.8962 16.9725 21.0814 16.8996C21.2665 16.8267 21.4346 16.7164 21.5753 16.5757C21.716 16.435 21.8263 16.2669 21.8992 16.0818C21.9721 15.8966 22.0061 15.6985 21.9991 15.4996V1.50077C22.0061 1.30192 21.9721 1.10377 21.8992 0.918633C21.8263 0.7335 21.716 0.565354 21.5753 0.424661C21.4346 0.283967 21.2665 0.173738 21.0814 0.100833C20.8962 0.027929 20.6981 -0.00609024 20.4992 0.000893409ZM19.9993 14.9997H18.3994L16.6995 13.2998C16.6106 13.2028 16.5024 13.1254 16.3819 13.0724C16.2614 13.0195 16.1312 12.9921 15.9996 12.9921C15.868 12.9921 15.7378 13.0195 15.6173 13.0724C15.4968 13.1254 15.3886 13.2028 15.2997 13.2998L13.5998 14.9997H2.00073V2.00073H13.5998L15.2997 3.70059C15.3886 3.79758 15.4968 3.87501 15.6173 3.92798C15.7378 3.98095 15.868 4.00831 15.9996 4.00831C16.1312 4.00831 16.2614 3.98095 16.3819 3.92798C16.5024 3.87501 16.6106 3.79758 16.6995 3.70059L18.3994 2.00073H19.9993V14.9997Z" fill="#253D4E"/>
<path d="M15.9999 5.00049C15.7347 5.00049 15.4804 5.10584 15.2929 5.29336C15.1053 5.48088 15 5.73521 15 6.00041V7.00033C15 7.26552 15.1053 7.51985 15.2929 7.70738C15.4804 7.8949 15.7347 8.00024 15.9999 8.00024C16.2651 8.00024 16.5194 7.8949 16.707 7.70738C16.8945 7.51985 16.9998 7.26552 16.9998 7.00033V6.00041C16.9998 5.73521 16.8945 5.48088 16.707 5.29336C16.5194 5.10584 16.2651 5.00049 15.9999 5.00049Z" fill="#253D4E"/>
<path d="M15.9999 9.00024C15.7347 9.00024 15.4804 9.10559 15.2929 9.29311C15.1053 9.48063 15 9.73497 15 10.0002V11.0001C15 11.2653 15.1053 11.5196 15.2929 11.7071C15.4804 11.8947 15.7347 12 15.9999 12C16.2651 12 16.5194 11.8947 16.707 11.7071C16.8945 11.5196 16.9998 11.2653 16.9998 11.0001V10.0002C16.9998 9.73497 16.8945 9.48063 16.707 9.29311C16.5194 9.10559 16.2651 9.00024 15.9999 9.00024Z" fill="#253D4E"/>
<path d="M5.99992 7.50033C6.55216 7.50033 6.99984 7.05265 6.99984 6.50041C6.99984 5.94817 6.55216 5.50049 5.99992 5.50049C5.44768 5.50049 5 5.94817 5 6.50041C5 7.05265 5.44768 7.50033 5.99992 7.50033Z" fill="#253D4E"/>
<path d="M9.99992 11.4998C10.5522 11.4998 10.9998 11.0522 10.9998 10.4999C10.9998 9.94768 10.5522 9.5 9.99992 9.5C9.44768 9.5 9 9.94768 9 10.4999C9 11.0522 9.44768 11.4998 9.99992 11.4998Z" fill="#253D4E"/>
<path d="M9.80047 5.30033L4.80088 10.2999C4.70389 10.3889 4.62646 10.4971 4.57349 10.6176C4.52052 10.7381 4.49316 10.8682 4.49316 10.9999C4.49316 11.1315 4.52052 11.2617 4.57349 11.3822C4.62646 11.5027 4.70389 11.6108 4.80088 11.6998C4.88986 11.7968 4.99803 11.8742 5.11852 11.9272C5.23901 11.9802 5.3692 12.0075 5.50082 12.0075C5.63244 12.0075 5.76263 11.9802 5.88312 11.9272C6.00361 11.8742 6.11178 11.7968 6.20076 11.6998L11.2004 6.70021C11.3448 6.50766 11.4149 6.26947 11.3978 6.02938C11.3808 5.78929 11.2777 5.56341 11.1075 5.39321C10.9373 5.22301 10.7114 5.11992 10.4713 5.10286C10.2312 5.0858 9.99303 5.15591 9.80047 5.30033Z" fill="#253D4E"/>
</svg>
