<svg width="26" height="26" viewBox="0 0 26 26" fill="none" xmlns="http://www.w3.org/2000/svg">
<path fill-rule="evenodd" clip-rule="evenodd" d="M5.4446 2.98348C6.25908 2.64528 7.1323 2.47119 8.0142 2.47119C8.89611 2.47119 9.76933 2.64528 10.5838 2.98348C11.3983 3.32167 12.138 3.81732 12.7605 4.442L12.764 4.4455L12.8251 4.50739L12.8862 4.44551L12.8896 4.442C13.5122 3.81732 14.2519 3.32167 15.0663 2.98348C15.8808 2.64528 16.754 2.47119 17.6359 2.47119C18.5178 2.47119 19.3911 2.64528 20.2055 2.98348C21.0197 3.32156 21.7592 3.81698 22.3816 4.44136C25.0462 7.10664 25.1054 11.5135 21.9481 14.73L21.9413 14.737L13.5654 23.1128C13.3691 23.3091 13.1027 23.4194 12.8251 23.4194C12.5474 23.4194 12.2811 23.3091 12.0847 23.1128L3.70205 14.7301C0.544677 11.5136 0.603957 7.10664 3.26855 4.44135C3.89093 3.81698 4.6304 3.32156 5.4446 2.98348ZM8.0142 4.56515C7.4079 4.56515 6.80755 4.68484 6.2476 4.91735C5.68765 5.14986 5.1791 5.49061 4.75112 5.92008L4.74984 5.92137C2.97666 7.69455 2.76335 10.7816 5.19314 13.2598L12.8251 20.8918L20.457 13.2599C22.8868 10.7816 22.6735 7.69455 20.9003 5.92137L20.899 5.92008C20.471 5.49061 19.9625 5.14986 19.4025 4.91735C18.8426 4.68484 18.2422 4.56515 17.6359 4.56515C17.0296 4.56515 16.4293 4.68484 15.8693 4.91735C15.3101 5.14955 14.8022 5.48972 14.3745 5.91839C14.374 5.91895 14.3734 5.91952 14.3729 5.92008L13.5702 6.73322C13.3734 6.9325 13.1051 7.04466 12.8251 7.04466C12.5451 7.04466 12.2767 6.9325 12.08 6.73322L11.2773 5.92008C11.2767 5.91952 11.2762 5.91895 11.2756 5.91839C10.848 5.48972 10.34 5.14955 9.78081 4.91735C9.22085 4.68484 8.62051 4.56515 8.0142 4.56515Z" fill="#253D4E"/>
</svg>
